<svg width="579.23228" height="563.50586" xmlns="http://www.w3.org/2000/svg" data-name="Layer 1">

 <g>
  <title>Layer 1</title>
  <path id="svg_1" fill="#f2f2f2" d="m223.64239,513.24874l-15.08405,13.88667l11.98765,-20.11431c-9.4445,-17.12689 -24.89088,-31.92871 -24.89088,-31.92871s-32.04585,30.70246 -32.04585,54.83659s14.34734,32.56087 32.04585,32.56087c17.69823,0 32.04557,-8.42673 32.04557,-32.56087c0,-5.37176 -1.5899,-11.06865 -4.05829,-16.68024z"/>
  <path id="svg_2" fill="#fff" d="m204.67915,527.88719l0,1.18959c-0.07066,13.82775 -2.40275,24.61668 -6.97863,32.21367c-0.06477,0.1119 -0.13544,0.2179 -0.20025,0.32979l-0.51235,-0.3121l-0.48877,-0.30625c5.07644,-8.20359 6.87263,-19.79933 6.9374,-31.86031c0.00589,-0.3887 0.01179,-0.78326 0.00589,-1.17783c-0.01768,-5.10592 -0.32979,-10.27068 -0.83035,-15.28825c-0.03533,-0.38871 -0.07656,-0.78327 -0.11779,-1.17783c-0.69492,-6.61941 -1.69608,-12.94435 -2.72079,-18.43894c-0.07066,-0.38871 -0.14723,-0.77737 -0.22379,-1.16018c-1.77264,-9.29307 -3.58061,-16.02437 -3.99286,-17.51434c-0.04709,-0.18256 -0.07656,-0.28267 -0.08246,-0.30621l0.55948,-0.159l0.00589,-0.00589l0.56538,-0.159c0.00589,0.02358 0.106,0.35926 0.27087,0.98351c0.63015,2.33208 2.26735,8.66292 3.87508,17.01374c0.07066,0.37691 0.14723,0.76562 0.21789,1.15429c0.83625,4.45809 1.65485,9.44033 2.30268,14.66986q0.24732,1.97 0.44169,3.88686c0.04709,0.39457 0.08831,0.78913 0.12365,1.17783q0.81274,8.13586 0.84214,15.24699z"/>
  <path id="svg_3" fill="#fff" d="m200.75109,491.75132c-0.39457,0.053 -0.795,0.106 -1.20138,0.14723a32.49,32.49 0 0 1 -3.32149,0.17081a31.60342,31.60342 0 0 1 -13.66284,-3.08591c-0.24734,0.3121 -0.49467,0.62424 -0.7479,0.94225a32.77364,32.77364 0 0 0 14.41074,3.32149a33.61622,33.61622 0 0 0 3.54528,-0.18846c0.40046,-0.04123 0.80092,-0.09425 1.19548,-0.15312a32.49749,32.49749 0 0 0 9.39321,-2.84448q-0.37985,-0.48584 -0.742,-0.954a31.49481,31.49481 0 0 1 -8.8691,2.64419z"/>
  <path id="svg_4" fill="#fff" d="m203.71335,511.46233q-0.60953,0.03533 -1.21906,0.03534c-0.12369,0.00589 -0.25323,0.00589 -0.37692,0.00589a31.771,31.771 0 0 1 -26.07722,-13.62163c-0.23555,0.34744 -0.47113,0.69491 -0.70078,1.04825a32.95074,32.95074 0 0 0 26.778,13.75119c0.16492,0 0.3298,0 0.49471,-0.00589c0.41221,-0.0059 0.81856,-0.01769 1.22492,-0.03534a32.77636,32.77636 0 0 0 17.46135,-6.12473c-0.18846,-0.34744 -0.37691,-0.69492 -0.57127,-1.04236a31.55274,31.55274 0 0 1 -17.01373,5.98928z"/>
  <path id="svg_5" fill="#fff" d="m204.67915,527.88719c-0.41221,0.03533 -0.82446,0.05888 -1.23671,0.07656c-0.44168,0.01765 -0.88337,0.02944 -1.32506,0.02944a31.85693,31.85693 0 0 1 -30.54114,-22.92061c-0.265,0.47706 -0.53,0.94818 -0.78326,1.4252a33.02351,33.02351 0 0 0 31.3244,22.67324c0.44169,0 0.88338,-0.00589 1.31917,-0.02944c0.41814,-0.01179 0.83039,-0.03533 1.2426,-0.0648a32.92693,32.92693 0 0 0 21.731,-10.60638c-0.12368,-0.43579 -0.265,-0.86568 -0.40635,-1.30148a31.75415,31.75415 0 0 1 -21.32465,10.71827z"/>
  <rect id="svg_13" fill="#f0f0f0" height="280.41998" width="529.27979" y="68.08588" x="17.39935"/>
  <path id="svg_14" fill="#fff" d="m546.67915,120.57587l0,-2.75l-103.02979,0l0,-49.74l-2.75,0l0,49.74l-103.03028,0l0,-49.74l-2.75,0l0,49.74l-103.02978,0l0,-49.74l-2.75,0l0,49.74l-103.03028,0l0,-49.74l-2.75,0l0,49.74l-106.15966,0l0,2.75l106.15966,0l0,54.95l-106.15966,0l0,2.75l106.15966,0l0,54.95l-106.15966,0l0,2.75l106.15966,0l0,54.94l-106.15966,0l0,2.75l106.15966,0l0,54.84l2.75,0l0,-54.84l103.03028,0l0,54.84l2.75,0l0,-54.84l103.02978,0l0,54.84l2.75,0l0,-54.84l103.03028,0l0,54.84l2.75,0l0,-54.84l103.02979,0l0,-2.75l-103.02979,0l0,-54.94l103.02979,0l0,-2.75l-103.02979,0l0,-54.94994l103.02979,0l0,-2.75l-103.02979,0l0,-54.95l103.02979,-0.00006zm-317.33984,170.34l-103.03029,0l0,-54.94l103.03028,0l0.00001,54.94zm0,-57.69l-103.03029,0l0,-54.94994l103.03028,0l0.00001,54.94994zm0,-57.69995l-103.03029,0l0,-54.95l103.03028,0l0.00001,54.95zm105.77978,115.39l-103.02979,0l0,-54.94l103.02978,0l0.00001,54.94zm0,-57.69l-103.02979,0l0,-54.94999l103.02978,0l0.00001,54.94999zm0,-57.69995l-103.02979,0l0,-54.95l103.02978,0l0.00001,54.95zm105.78028,115.39l-103.03029,0l0,-54.94l103.03028,0l0.00001,54.94zm0,-57.69l-103.03029,0l0,-54.95004l103.03028,0l0.00001,54.95004zm0,-57.69995l-103.03029,0l0,-54.95l103.03028,0l0.00001,54.95z"/>
  <rect id="svg_15" fill="#cacaca" height="34.28022" width="35.40913" y="133.93944" x="146.80512"/>
  <rect id="svg_16" fill="#cacaca" height="34.28022" width="35.40913" y="244.93944" x="472.80512"/>
  <rect id="svg_17" fill="#cacaca" height="34.28022" width="35.40913" y="301.93944" x="157.80512"/>
  <rect id="svg_18" fill="#084a83" height="34.28022" width="35.40913" y="127.57947" x="168.27001"/>
  <polygon id="svg_19" fill="#ffb6b6" points="370.13 270.076 412.149 232.639 424.545 238.781 374.149 291.639 370.13 270.076"/>
  <circle id="svg_20" fill="#ffb6b6" r="10" cy="235.50586" cx="417.67913"/>
  <polygon id="svg_21" fill="#ffb6b6" points="330.799 551.856 320.856 551.856 316.126 513.506 330.8 513.507 330.799 551.856"/>
  <path id="svg_22" fill="#2f2e41" d="m333.33433,561.49369l-32.05873,-0.00118l0,-0.40549a12.47883,12.47883 0 0 1 12.47815,-12.478l0.00079,0l19.58038,0.00079l-0.00059,12.88388z"/>
  <polygon id="svg_23" fill="#ffb6b6" points="294.799 551.856 284.856 551.856 280.126 513.506 294.8 513.507 294.799 551.856"/>
  <path id="svg_24" fill="#2f2e41" d="m297.33433,561.49369l-32.05873,-0.00118l0,-0.40549a12.47883,12.47883 0 0 1 12.47815,-12.478l0.00079,0l19.58038,0.00079l-0.00059,12.88388z"/>
  <path id="svg_25" fill="#2f2e41" d="m339.14926,332.63907s25,-2 17,42s-24.57086,164.36139 -24.57086,164.36139l-15.02362,2.065l-8.87563,-160.5596l-6.71491,160.55961l-19.10717,-2.065l-18.7078,-172.36139s-6.00695,-13.85827 -0.00347,-23.42914s76.00346,-10.57087 76.00346,-10.57087z"/>
  <path id="svg_26" fill="#3f3d56" d="m323.14926,223.63907l6.941,-3.71862s17.101,-1.45855 24.08,18.63l18.50889,27.95541l30,-26l13,9l-37.80893,45.12462l-15.721,2.00859l-34,-44l-4.99996,-29z"/>
  <path id="svg_27" fill="#2f2e41" d="m297.96264,142.50593c-28.51758,0 -36.5,31.32684 -36.5,49c0,17.6731 16.34155,15 36.5,15c8.65246,0 16.59655,0.48847 22.85223,-0.34692l3.00867,-7.34693l2.42132,6.08765c5.13483,-1.88666 8.21778,-5.7215 8.21778,-13.3938c0,-17.67319 -7,-49 -36.5,-49z"/>
  <circle id="svg_28" fill="#ffb6b6" r="24.56103" cy="181.91534" cx="297.84055"/>
  <path id="svg_29" fill="#2f2e41" d="m269.46261,179.50586l0,0l9.71435,0l4.28565,-12l0.85693,12l4.64307,0l2.5,-7l0.5,7l34.5,0l0,0a26,26 0 0 0 -26,-26l-5,0a26,26 0 0 0 -26,26z"/>
  <rect id="svg_30" fill="#084a83" height="34.28022" width="35.40913" y="197.57947" x="398.27001"/>
  <path id="svg_31" fill="#3f3d56" d="m346.92035,323.59052c-3.771,0.04852 -15.12988,-67.35 -15.12988,-67.35l-1.7002,-36.32l-12.41113,-0.41717l0,-0.81642a6.18126,6.18126 0 0 0 -6.18115,-6.18109l-23.6377,0a6.17631,6.17631 0 0 0 -6.16113,5.7879l-9.73291,-0.32714l-16.856,53.55389s15.53223,49.76031 8.03565,71.68939c0,0 73.03808,6.272 87.02051,-7.64941c0.00004,0.00002 0.52494,-12.01854 -3.24606,-11.96995z"/>
  <path id="svg_32" fill="#3f3d56" d="m276.14926,224.63907l-4.18311,-6.67245s-13.61027,-3.36487 -19.21357,5.65379s-22.07343,57.88545 -22.07343,57.88545l17,6l19.29135,-27.04556l9.17876,-35.82123z"/>
  <rect id="svg_33" fill="#084a83" height="34.28022" width="35.40913" y="259.57947" x="283.27001"/>
  <path id="svg_34" fill="#ffb6b6" d="m256.10274,271.96937l-12.31885,-1.30344l0,0a12.085,12.085 0 0 0 8.57723,16.98054l48.74344,9.72822l-5.08446,-15.65894l-39.91736,-9.74638z"/>
  <circle id="svg_35" fill="#ffb6b6" r="10" cy="287.55513" cx="301.25138"/>
  <path id="svg_36" fill="#3f3d56" d="m288.76777,297.85938l-37.13453,-8.48535a16.0433,16.0433 0 0 1 -11.63232,-10.64063l-1.50073,-4.62793l9.63745,-7.584l44.15283,12.34082l-3.5227,18.99709z"/>
  <path id="svg_37" fill="#cacaca" d="m497.43898,563.50586l-381,0a1,1 0 1 1 0,-2l381,0a1,1 0 0 1 0,2z"/>
 </g>
</svg>